<svg viewBox="0 0 18 18" fill="currentColor" xmlns="http://www.w3.org/2000/svg">
<path d="M8.99981 18C13.9148 18 18 13.9235 18 9C18 4.08513 13.9058 0 8.99078 0C4.06752 0 0 4.08513 0 9C0 13.9235 4.07618 18 8.99981 18ZM8.99153 10.3237C8.52356 10.3237 8.26793 10.05 8.24986 9.58203L8.12637 5.22396C8.10868 4.73831 8.47914 4.39459 8.98212 4.39459C9.47644 4.39459 9.85556 4.74734 9.83824 5.23262L9.71438 9.58278C9.69668 10.059 9.43201 10.3241 8.99115 10.3241M8.99115 13.5712C8.47914 13.5712 8.00251 13.1653 8.00251 12.6179C8.00251 12.0705 8.47048 11.6654 8.99115 11.6654C9.50279 11.6654 9.97904 12.0622 9.97904 12.6179C9.97904 13.174 9.49376 13.5712 8.99115 13.5712Z" fill="currentColor"/>
</svg>
