<svg viewBox="0 0 18 16" fill="currentColor" xmlns="http://www.w3.org/2000/svg">
<path d="M4.75312 3.05L3.83555 5.71429H14.1645L13.2469 3.05C13.0887 2.59286 12.6633 2.28571 12.1852 2.28571H5.81484C5.33672 2.28571 4.91133 2.59286 4.75312 3.05ZM1.39219 5.88571L2.62969 2.29643C3.1043 0.921429 4.38047 0 5.81484 0H12.1852C13.6195 0 14.8957 0.921429 15.3703 2.29643L16.6078 5.88571C17.4234 6.22857 18 7.04643 18 8V14.8571C18 15.4893 17.4973 16 16.875 16H15.75C15.1277 16 14.625 15.4893 14.625 14.8571V13.7143H3.375V14.8571C3.375 15.4893 2.87227 16 2.25 16H1.125C0.502734 16 0 15.4893 0 14.8571V8C0 7.04643 0.576562 6.22857 1.39219 5.88571ZM4.5 9.71429C4.5 9.08214 3.99727 8.57143 3.375 8.57143C2.75273 8.57143 2.25 9.08214 2.25 9.71429C2.25 10.3464 2.75273 10.8571 3.375 10.8571C3.99727 10.8571 4.5 10.3464 4.5 9.71429ZM14.625 10.8571C15.2473 10.8571 15.75 10.3464 15.75 9.71429C15.75 9.08214 15.2473 8.57143 14.625 8.57143C14.0027 8.57143 13.5 9.08214 13.5 9.71429C13.5 10.3464 14.0027 10.8571 14.625 10.8571Z" fill="currentColor"/>
</svg>
