<svg viewBox="0 0 18 16" fill="currentColor" xmlns="http://www.w3.org/2000/svg">
<path d="M14.4319 0H0V5.938H1.39054L3.25539 2.788L4.92224 6.288L5.64856 5.062H9.45657C9.79171 3.96157 10.4961 3.04728 11.423 2.50963C12.3498 1.97199 13.4277 1.85248 14.4319 2.176V0ZM9.27656 7.063H6.61879L4.75303 10.21L3.08709 6.71L2.36077 7.936H0V13H6.31548V14H4.51003C4.27133 14 4.0424 14.1054 3.87361 14.2929C3.70483 14.4804 3.61 14.7348 3.61 15C3.61 15.2652 3.70483 15.5196 3.87361 15.7071C4.0424 15.8946 4.27133 16 4.51003 16H9.92188C10.1606 16 10.3895 15.8946 10.5583 15.7071C10.7271 15.5196 10.8219 15.2652 10.8219 15C10.8219 14.7348 10.7271 14.4804 10.5583 14.2929C10.3895 14.1054 10.1606 14 9.92188 14H8.11553V13H14.4319V10.824C14.0653 10.9414 13.6857 11.0006 13.3042 11C12.3167 11.0004 11.363 10.6008 10.6216 9.87609C9.88022 9.15139 9.40202 8.15126 9.27656 7.063Z" fill="currentColor"/>
<path fill-rule="evenodd" clip-rule="evenodd" d="M16.0804 8.166C16.3392 7.63219 16.469 7.03287 16.4569 6.42665C16.4449 5.82044 16.2914 5.22807 16.0116 4.70746C15.7318 4.18686 15.3352 3.75585 14.8606 3.45656C14.3859 3.15728 13.8495 2.99996 13.3038 3C12.8896 2.99948 12.4794 3.08959 12.0966 3.2652C11.7138 3.4408 11.3659 3.69847 11.0727 4.02347C10.7795 4.34848 10.5468 4.73446 10.3879 5.15938C10.229 5.58431 10.147 6.03985 10.1465 6.5C10.1465 8.433 11.5595 10 13.3038 10C13.8285 10.001 14.3452 9.85624 14.8068 9.579L16.7248 11.706L18.0001 10.294L16.0804 8.166ZM13.3038 8C14.0562 8 14.6601 7.324 14.6601 6.5C14.6601 5.676 14.058 5 13.3038 5C12.5496 5 11.9465 5.676 11.9465 6.5C11.9465 7.324 12.5505 8 13.3038 8Z" fill="currentColor"/>
</svg>
