<svg viewBox="0 0 18 18" fill="currentColor" xmlns="http://www.w3.org/2000/svg">
<path d="M17.2036 4.23L17.2145 4.22L13.1564 0.5L12 1.56L14.3018 3.67C13.2764 4.03 12.5455 4.93 12.5455 6C12.5455 7.38 13.7673 8.5 15.2727 8.5C15.6655 8.5 16.0255 8.42 16.3636 8.29V15.5C16.3636 16.05 15.8727 16.5 15.2727 16.5C14.6727 16.5 14.1818 16.05 14.1818 15.5V11C14.1818 9.9 13.2 9 12 9H10.9091V2C10.9091 0.9 9.92727 0 8.72727 0H2.18182C0.981818 0 0 0.9 0 2V18H10.9091V10.5H12.5455V15.5C12.5455 16.88 13.7673 18 15.2727 18C16.7782 18 18 16.88 18 15.5V6C18 5.31 17.6945 4.68 17.2036 4.23ZM8.72727 7H2.18182V2H8.72727V7ZM15.2727 7C14.6727 7 14.1818 6.55 14.1818 6C14.1818 5.45 14.6727 5 15.2727 5C15.8727 5 16.3636 5.45 16.3636 6C16.3636 6.55 15.8727 7 15.2727 7Z" fill="currentColor"/>
</svg>
