<svg viewBox="0 0 18 18" fill="currentColor" xmlns="http://www.w3.org/2000/svg">
<path fill-rule="evenodd" clip-rule="evenodd" d="M13 11.5309C14.306 11.5309 15.418 12.3332 15.83 13.4527H17C17.2652 13.4527 17.5196 13.5539 17.7071 13.7341C17.8946 13.9143 18 14.1587 18 14.4136C18 14.6684 17.8946 14.9128 17.7071 15.0931C17.5196 15.2733 17.2652 15.3745 17 15.3745H15.83C15.6234 15.9371 15.2403 16.4243 14.7334 16.769C14.2265 17.1136 13.6209 17.2987 13 17.2987C12.3791 17.2987 11.7735 17.1136 11.2666 16.769C10.7597 16.4243 10.3766 15.9371 10.17 15.3745H1C0.734784 15.3745 0.48043 15.2733 0.292893 15.0931C0.105357 14.9128 0 14.6684 0 14.4136C0 14.1587 0.105357 13.9143 0.292893 13.7341C0.48043 13.5539 0.734784 13.4527 1 13.4527H10.17C10.3769 12.8904 10.7602 12.4036 11.267 12.0594C11.7739 11.7152 12.3793 11.5306 13 11.5309ZM13 13.4527C12.7348 13.4527 12.4804 13.5539 12.2929 13.7341C12.1054 13.9143 12 14.1587 12 14.4136C12 14.6684 12.1054 14.9128 12.2929 15.0931C12.4804 15.2733 12.7348 15.3745 13 15.3745C13.2652 15.3745 13.5196 15.2733 13.7071 15.0931C13.8946 14.9128 14 14.6684 14 14.4136C14 14.1587 13.8946 13.9143 13.7071 13.7341C13.5196 13.5539 13.2652 13.4527 13 13.4527ZM5 5.76544C5.58899 5.76536 6.16497 5.93188 6.65613 6.24424C7.14729 6.55661 7.5319 7.00098 7.762 7.52197L7.829 7.68725H17C17.2549 7.68752 17.5 7.7813 17.6854 7.94943C17.8707 8.11756 17.9822 8.34734 17.9972 8.59184C18.0121 8.83633 17.9293 9.07708 17.7657 9.26489C17.6021 9.45271 17.3701 9.57341 17.117 9.60233L17 9.60906H7.83C7.6284 10.157 7.25917 10.6337 6.77073 10.9765C6.28229 11.3194 5.69744 11.5124 5.09285 11.5303C4.48827 11.5481 3.89217 11.39 3.38273 11.0767C2.87328 10.7633 2.47427 10.3094 2.238 9.77433L2.17 9.60906H1C0.74512 9.60879 0.499968 9.51501 0.314632 9.34688C0.129296 9.17875 0.017765 8.94896 0.00282788 8.70447C-0.0121092 8.45997 0.0706746 8.21922 0.234265 8.03141C0.397855 7.8436 0.629904 7.7229 0.883 7.69397L1 7.68725H2.17C2.37688 7.12497 2.76016 6.63819 3.26702 6.29399C3.77387 5.94979 4.37935 5.76512 5 5.76544ZM5 7.68725C4.73478 7.68725 4.48043 7.78849 4.29289 7.96869C4.10536 8.14889 4 8.3933 4 8.64815C4 8.903 4.10536 9.14741 4.29289 9.32762C4.48043 9.50782 4.73478 9.60906 5 9.60906C5.26522 9.60906 5.51957 9.50782 5.70711 9.32762C5.89464 9.14741 6 8.903 6 8.64815C6 8.3933 5.89464 8.14889 5.70711 7.96869C5.51957 7.78849 5.26522 7.68725 5 7.68725ZM13 3.96348e-07C14.306 3.96348e-07 15.418 0.802357 15.83 1.92181H17C17.2652 1.92181 17.5196 2.02305 17.7071 2.20326C17.8946 2.38346 18 2.62787 18 2.88272C18 3.13757 17.8946 3.38198 17.7071 3.56218C17.5196 3.74239 17.2652 3.84362 17 3.84362H15.83C15.6234 4.40627 15.2403 4.89348 14.7334 5.2381C14.2265 5.58272 13.6209 5.76779 13 5.76779C12.3791 5.76779 11.7735 5.58272 11.2666 5.2381C10.7597 4.89348 10.3766 4.40627 10.17 3.84362H1C0.734784 3.84362 0.48043 3.74239 0.292893 3.56218C0.105357 3.38198 0 3.13757 0 2.88272C0 2.62787 0.105357 2.38346 0.292893 2.20326C0.48043 2.02305 0.734784 1.92181 1 1.92181H10.17C10.3769 1.35953 10.7602 0.87275 11.267 0.528552C11.7739 0.184355 12.3793 -0.000312256 13 3.96348e-07ZM13 1.92181C12.7348 1.92181 12.4804 2.02305 12.2929 2.20326C12.1054 2.38346 12 2.62787 12 2.88272C12 3.13757 12.1054 3.38198 12.2929 3.56218C12.4804 3.74239 12.7348 3.84362 13 3.84362C13.2652 3.84362 13.5196 3.74239 13.7071 3.56218C13.8946 3.38198 14 3.13757 14 2.88272C14 2.62787 13.8946 2.38346 13.7071 2.20326C13.5196 2.02305 13.2652 1.92181 13 1.92181Z" fill="currentColor"/>
</svg>
