<svg viewBox="0 0 18 18" fill="currentColor" xmlns="http://www.w3.org/2000/svg">
<path d="M9 0C4.032 0 0 4.032 0 9C0 13.968 4.032 18 9 18C13.968 18 18 13.968 18 9C18 4.032 13.968 0 9 0ZM9 16.2C5.031 16.2 1.8 12.969 1.8 9C1.8 5.031 5.031 1.8 9 1.8C12.969 1.8 16.2 5.031 16.2 9C16.2 12.969 12.969 16.2 9 16.2ZM4.05 13.95L10.809 10.809L13.95 4.05L7.191 7.191L4.05 13.95ZM9 8.01C9.549 8.01 9.99 8.451 9.99 9C9.99 9.549 9.549 9.99 9 9.99C8.451 9.99 8.01 9.549 8.01 9C8.01 8.451 8.451 8.01 9 8.01Z" fill="currentColor"/>
</svg>
