<svg viewBox="0 0 18 18" fill="currentColor" xmlns="http://www.w3.org/2000/svg">
<path d="M0 4.05V2.25C0 1.8315 1.08033e-07 1.6227 0.0380001 1.449C0.115104 1.09966 0.305628 0.778759 0.585458 0.526912C0.865288 0.275065 1.22184 0.103594 1.61 0.0342001C1.803 9.72301e-08 2.035 0 2.5 0C2.965 0 3.197 9.72301e-08 3.39 0.0342001C3.77816 0.103594 4.13471 0.275065 4.41454 0.526912C4.69437 0.778759 4.8849 1.09966 4.962 1.449C5 1.6227 5 1.8315 5 2.25V2.475H13V2.25C13 1.8315 13 1.6227 13.038 1.449C13.1151 1.09966 13.3056 0.778759 13.5855 0.526912C13.8653 0.275065 14.2218 0.103594 14.61 0.0342001C14.803 9.72301e-08 15.035 0 15.5 0C15.965 0 16.197 9.72301e-08 16.39 0.0342001C16.7782 0.103594 17.1347 0.275065 17.4145 0.526912C17.6944 0.778759 17.8849 1.09966 17.962 1.449C18 1.6227 18 1.8315 18 2.25V4.05C18 4.4685 18 4.6773 17.962 4.851C17.8849 5.20034 17.6944 5.52124 17.4145 5.77309C17.1347 6.02493 16.7782 6.19641 16.39 6.2658C16.197 6.3 15.965 6.3 15.5 6.3C15.035 6.3 14.803 6.3 14.61 6.2658C14.2218 6.19641 13.8653 6.02493 13.5855 5.77309C13.3056 5.52124 13.1151 5.20034 13.038 4.851C13 4.6773 13 4.4685 13 4.05V3.825H9.75V14.175H13V13.95C13 13.5315 13 13.3227 13.038 13.149C13.1151 12.7997 13.3056 12.4788 13.5855 12.2269C13.8653 11.9751 14.2218 11.8036 14.61 11.7342C14.803 11.7 15.035 11.7 15.5 11.7C15.965 11.7 16.197 11.7 16.39 11.7342C16.7782 11.8036 17.1347 11.9751 17.4145 12.2269C17.6944 12.4788 17.8849 12.7997 17.962 13.149C18 13.3227 18 13.5315 18 13.95V15.75C18 16.1685 18 16.3773 17.962 16.551C17.8849 16.9003 17.6944 17.2212 17.4145 17.4731C17.1347 17.7249 16.7782 17.8964 16.39 17.9658C16.197 18 15.965 18 15.5 18C15.035 18 14.803 18 14.61 17.9658C14.2218 17.8964 13.8653 17.7249 13.5855 17.4731C13.3056 17.2212 13.1151 16.9003 13.038 16.551C13 16.3773 13 16.1685 13 15.75V15.525H5V15.75C5 16.1685 5 16.3773 4.962 16.551C4.8849 16.9003 4.69437 17.2212 4.41454 17.4731C4.13471 17.7249 3.77816 17.8964 3.39 17.9658C3.197 18 2.965 18 2.5 18C2.035 18 1.803 18 1.61 17.9658C1.22184 17.8964 0.865288 17.7249 0.585458 17.4731C0.305628 17.2212 0.115104 16.9003 0.0380001 16.551C1.08033e-07 16.3773 0 16.1685 0 15.75V13.95C0 13.5315 1.08033e-07 13.3227 0.0380001 13.149C0.115104 12.7997 0.305628 12.4788 0.585458 12.2269C0.865288 11.9751 1.22184 11.8036 1.61 11.7342C1.803 11.7 2.035 11.7 2.5 11.7C2.965 11.7 3.197 11.7 3.39 11.7342C3.77816 11.8036 4.13471 11.9751 4.41454 12.2269C4.69437 12.4788 4.8849 12.7997 4.962 13.149C5 13.3227 5 13.5315 5 13.95V14.175H8.25V3.825H5V4.05C5 4.4685 5 4.6773 4.962 4.851C4.8849 5.20034 4.69437 5.52124 4.41454 5.77309C4.13471 6.02493 3.77816 6.19641 3.39 6.2658C3.197 6.3 2.965 6.3 2.5 6.3C2.035 6.3 1.803 6.3 1.61 6.2658C1.22184 6.19641 0.865288 6.02493 0.585458 5.77309C0.305628 5.52124 0.115104 5.20034 0.0380001 4.851C1.08033e-07 4.6773 0 4.4685 0 4.05Z" fill="currentColor"/>
</svg>
