<svg viewBox="0 0 18 18" fill="currentColor" xmlns="http://www.w3.org/2000/svg">
<path d="M15.8766 9.882C15.9136 9.594 15.9414 9.306 15.9414 9C15.9414 8.694 15.9136 8.406 15.8766 8.118L17.8289 6.633C18.0047 6.498 18.051 6.255 17.9399 6.057L16.0894 2.943C15.9784 2.745 15.7286 2.673 15.525 2.745L13.2212 3.645C12.74 3.285 12.2219 2.988 11.6575 2.763L11.3059 0.378C11.2782 0.162 11.0839 0 10.8525 0H7.15155C6.92024 0 6.72593 0.162 6.69818 0.378L6.34658 2.763C5.78218 2.988 5.26404 3.294 4.78291 3.645L2.47905 2.745C2.26624 2.664 2.02567 2.745 1.91464 2.943L0.0641489 6.057C-0.0561333 6.255 -0.000618345 6.498 0.175179 6.633L2.12745 8.118C2.09044 8.406 2.06268 8.703 2.06268 9C2.06268 9.297 2.09044 9.594 2.12745 9.882L0.175179 11.367C-0.000618345 11.502 -0.0468809 11.745 0.0641489 11.943L1.91464 15.057C2.02567 15.255 2.27549 15.327 2.47905 15.255L4.78291 14.355C5.26404 14.715 5.78218 15.012 6.34658 15.237L6.69818 17.622C6.72593 17.838 6.92024 18 7.15155 18H10.8525C11.0839 18 11.2782 17.838 11.3059 17.622L11.6575 15.237C12.2219 15.012 12.74 14.706 13.2212 14.355L15.525 15.255C15.7378 15.336 15.9784 15.255 16.0894 15.057L17.9399 11.943C18.051 11.745 18.0047 11.502 17.8289 11.367L15.8766 9.882ZM9.00204 12.15C7.21632 12.15 5.76368 10.737 5.76368 9C5.76368 7.263 7.21632 5.85 9.00204 5.85C10.7878 5.85 12.2404 7.263 12.2404 9C12.2404 10.737 10.7878 12.15 9.00204 12.15Z" fill="currentColor"/>
</svg>
