<svg viewBox="0 0 18 18" fill="currentColor" xmlns="http://www.w3.org/2000/svg">
<path d="M18 12.4616V16.6154C18 16.9826 17.842 17.3348 17.5607 17.5945C17.2794 17.8541 16.8978 18 16.5 18H1.5C1.10218 18 0.720644 17.8541 0.43934 17.5945C0.158035 17.3348 0 16.9826 0 16.6154V12.4616C0 12.0944 0.158035 11.7422 0.43934 11.4825C0.720644 11.2229 1.10218 11.077 1.5 11.077H8.25V6.85308C7.33947 6.68152 6.53038 6.20399 5.9796 5.51307C5.42882 4.82215 5.17559 3.96707 5.26899 3.1136C5.36239 2.26012 5.79578 1.46907 6.48514 0.893791C7.17449 0.318514 8.07069 0 9 0C9.92931 0 10.8255 0.318514 11.5149 0.893791C12.2042 1.46907 12.6376 2.26012 12.731 3.1136C12.8244 3.96707 12.5712 4.82215 12.0204 5.51307C11.4696 6.20399 10.6605 6.68152 9.75 6.85308V11.077H16.5C16.8978 11.077 17.2794 11.2229 17.5607 11.4825C17.842 11.7422 18 12.0944 18 12.4616ZM12 9.00008C12 9.18369 12.079 9.35978 12.2197 9.48961C12.3603 9.61944 12.5511 9.69238 12.75 9.69238H15.75C15.9489 9.69238 16.1397 9.61944 16.2803 9.48961C16.421 9.35978 16.5 9.18369 16.5 9.00008C16.5 8.81647 16.421 8.64038 16.2803 8.51055C16.1397 8.38072 15.9489 8.30778 15.75 8.30778H12.75C12.5511 8.30778 12.3603 8.38072 12.2197 8.51055C12.079 8.64038 12 8.81647 12 9.00008Z" fill="currentColor"/>
</svg>
