<svg viewBox="0 0 19 19" fill="currentColor" xmlns="http://www.w3.org/2000/svg">
<path d="M9.5 0.256757C4.39502 0.256757 0.256757 4.39502 0.256757 9.5C0.256757 14.605 4.39502 18.7432 9.5 18.7432C14.605 18.7432 18.7432 14.605 18.7432 9.5C18.7432 4.39502 14.605 0.256757 9.5 0.256757ZM9.5 16.4223C5.67714 16.4223 2.57774 13.3229 2.57774 9.5C2.57774 5.67714 5.67747 2.57774 9.5 2.57774C13.3225 2.57774 16.4223 5.67747 16.4223 9.5C16.4223 13.3225 13.3225 16.4223 9.5 16.4223Z" fill="currentColor"/>
<path d="M9.49934 7.26341C8.90633 7.26341 8.33762 7.49898 7.9183 7.9183C7.49898 8.33762 7.26341 8.90633 7.26341 9.49934C7.26341 10.0923 7.49898 10.6611 7.9183 11.0804C8.33762 11.4997 8.90633 11.7353 9.49934 11.7353C10.0923 11.7353 10.6611 11.4997 11.0804 11.0804C11.4997 10.6611 11.7353 10.0923 11.7353 9.49934C11.7353 8.90633 11.4997 8.33762 11.0804 7.9183C10.6611 7.49898 10.0923 7.26341 9.49934 7.26341ZM9.49934 10.4922C9.23602 10.4922 8.98348 10.3876 8.79728 10.2014C8.61108 10.0152 8.50648 9.76266 8.50648 9.49934C8.50648 9.23602 8.61108 8.98348 8.79728 8.79728C8.98348 8.61108 9.23602 8.50648 9.49934 8.50648C9.76266 8.50648 10.0152 8.61108 10.2014 8.79728C10.3876 8.98348 10.4922 9.23602 10.4922 9.49934C10.4922 9.76266 10.3876 10.0152 10.2014 10.2014C10.0152 10.3876 9.76266 10.4922 9.49934 10.4922Z" fill="currentColor"/>
<path d="M9.5 18.7432C14.6049 18.7432 18.7432 14.6049 18.7432 9.5C18.7432 4.3951 14.6049 0.256757 9.5 0.256757C4.3951 0.256757 0.256757 4.3951 0.256757 9.5C0.256757 14.6049 4.3951 18.7432 9.5 18.7432Z" stroke="currentColor" stroke-width="0.5" stroke-miterlimit="10"/>
<path d="M9.4999 16.5486C13.3928 16.5486 16.5486 13.3928 16.5486 9.4999C16.5486 5.60703 13.3928 2.45122 9.4999 2.45122C5.60703 2.45122 2.45122 5.60703 2.45122 9.4999C2.45122 13.3928 5.60703 16.5486 9.4999 16.5486Z" stroke="currentColor" stroke-width="0.5" stroke-miterlimit="10"/>
<path d="M4.54703 14.4545L7.91979 11.0817M11.3137 16.2675L10.0796 11.6606M16.2675 11.3137L11.6606 10.0796M14.4545 4.54703L11.0817 7.91979M7.68746 2.73406L8.92225 7.34128M2.73406 7.68746L7.34062 8.92192" stroke="currentColor" stroke-width="1.5" stroke-miterlimit="10" stroke-linecap="round"/>
<path d="M9.49934 11.7353C10.7342 11.7353 11.7353 10.7342 11.7353 9.49934C11.7353 8.26447 10.7342 7.26341 9.49934 7.26341C8.26447 7.26341 7.26341 8.26447 7.26341 9.49934C7.26341 10.7342 8.26447 11.7353 9.49934 11.7353Z" stroke="currentColor" stroke-width="0.5" stroke-miterlimit="10"/>
<path d="M9.49994 10.4928C10.0483 10.4928 10.4928 10.0483 10.4928 9.49994C10.4928 8.95159 10.0483 8.50707 9.49994 8.50707C8.95159 8.50707 8.50707 8.95159 8.50707 9.49994C8.50707 10.0483 8.95159 10.4928 9.49994 10.4928Z" stroke="currentColor" stroke-width="0.5" stroke-miterlimit="10"/>
</svg>
